<?xml version="1.0" encoding="UTF-8"?>
<!DOCTYPE svg PUBLIC "-//W3C//DTD SVG 1.1//EN" "http://www.w3.org/Graphics/SVG/1.1/DTD/svg11.dtd">
<!-- Creator: CorelDRAW -->
<svg xmlns="http://www.w3.org/2000/svg" xml:space="preserve" width="7.5215mm" height="7.2244mm" version="1.1" style="shape-rendering:geometricPrecision; text-rendering:geometricPrecision; image-rendering:optimizeQuality; fill-rule:evenodd; clip-rule:evenodd"
viewBox="0 0 188.75 181.3"
 xmlns:xlink="http://www.w3.org/1999/xlink"
 xmlns:xodm="http://www.corel.com/coreldraw/odm/2003">
 <defs>
  <style type="text/css">
   <![CDATA[
    .fil0 {fill:white}
   ]]>
  </style>
 </defs>
 <g id="Layer_x0020_1">
  <metadata id="CorelCorpID_0Corel-Layer"/>
  <g id="_3054642518512">
   <path class="fil0" d="M95.66 180.82c20.65,-74.3 20.05,-74.63 34.97,-127.6l3.59 2.09c1.95,1.13 3.55,0.2 3.55,-2.06l-0 -25.25c3.96,-13.96 7.06,-24.74 7.97,-27.99l16.17 0 26.86 25.04 -17.63 15.34 13.35 14.51 -87.92 125.91c-0.43,0.71 -1.03,0.55 -0.9,0l0.02 0z"/>
   <path class="fil0" d="M105.27 20.7c0.8,0 1.44,0.44 1.44,1l0 12.95c0,0.53 -0.6,0.98 -1.4,0.98l-21.71 0c-0.8,0 -1.46,-0.44 -1.46,-1l0 -12.95c0,-0.54 0.67,-0.98 1.46,-0.98l21.71 0 -0.05 0zm26.8 -14.34l-23.89 13.88c0.28,0.43 0.44,0.93 0.44,1.46l0 12.95c0,0.67 -0.27,1.26 -0.73,1.76l24.1 14.01c1.59,0.96 2.99,0.18 2.99,-1.73l0 -40.58c0,-1.91 -1.4,-2.7 -2.99,-1.74l0.08 -0.01zm-51.88 28.28l0 -12.95c0,-0.53 0.17,-1.03 0.44,-1.46l-23.89 -13.88c-1.64,-0.95 -2.99,-0.17 -2.99,1.74l0 40.57c0,1.92 1.34,2.66 2.99,1.73l24.14 -14.01c-0.43,-0.53 -0.69,-1.13 -0.69,-1.79l0.01 0.05z"/>
   <path class="fil0" d="M92.2 180.82l0.89 0c-20.65,-74.3 -20.05,-74.63 -34.96,-127.6l-3.59 2.09c-1.95,1.13 -3.55,0.2 -3.55,-2.06l0 -25.25c-3.98,-13.96 -7.1,-24.75 -8.03,-28l-16.14 0 -26.82 25.05 17.63 15.34 -13.35 14.51 87.91 125.89 0.01 0.03z"/>
   <ellipse class="fil0" cx="93.72" cy="56.09" rx="6.52" ry="6.56"/>
   <ellipse class="fil0" cx="93.72" cy="95.11" rx="6.52" ry="6.56"/>
   <ellipse class="fil0" cx="93.72" cy="134.13" rx="6.52" ry="6.56"/>
  </g>
 </g>
</svg>
