<svg width="30px" height="30px" viewBox="0 0 30 30" fill="none" xmlns="http://www.w3.org/2000/svg">
  <path d="M16.5 26.3h-3c-4.5 0-6.7 0-8.2-1.3l-.3-.3c-1.3-1.4-1.3-3.7-1.3-8.2 0-2.5 0-3.7.5-4.8 0-.1.1-.1.1-.2C5 10.4 6 9.7 8.1 8.3l1.4-.9c2.7-1.8 4-2.7 5.5-2.7s2.9.9 5.5 2.7l1.4.9c2.1 1.4 3.1 2.1 3.7 3.1 0 .1.1.1.1.2.5 1.1.5 2.3.5 4.8 0 4.5 0 6.7-1.3 8.2l-.3.3c-1.4 1.4-3.6 1.4-8.1 1.4z" 
  fill="none" 
  stroke="green" 
  stroke-miterlimit="5" 
  stroke-width="2">
  </path>
  <path d="M18.8 26.2h-7.5v-3.8c0-1.2 0-1.7.2-2.2.3-.6.7-1.1 1.4-1.4.5-.2 1-.2 2.2-.2s1.7 0 2.2.2c.6.3 1.1.7 1.4 1.4.2.5.2 1 .2 2.2v3.8z" 
  fill="none" 
  stroke="red" 
  stroke-miterlimit="5" 
  stroke-width="2">
  </path>
</svg>