<svg width="30px" height="30px" viewBox="0 0 30 30" fill="none" xmlns="http://www.w3.org/2000/svg">
  <path d="M26.2 16.2v-3.3c0-1.4 0-2.2-.3-2.7-.3-.6-1-.9-2.2-1.6l-3.8-2.1c-2.4-1.3-3.6-2-4.9-2s-2.5.7-4.9 2L6.3 8.6c-1.3.7-1.9 1-2.2 1.6-.3.6-.3 1.3-.3 2.7v3.3c0 4.7 0 7.1 1.5 8.5 1.5 1.5 3.8 1.5 8.5 1.5h2.5c4.7 0 7.1 0 8.5-1.5 1.4-1.4 1.4-3.7 1.4-8.5z" 
  fill="none" 
  stroke="green" 
  stroke-linecap="round" 
  stroke-miterlimit="5" 
  stroke-width="2">
  </path>
  <path d="m25.6 23.3-.9-.7C22.4 21.1 16.4 16 15 16c-1.4 0-7.1 4.5-9.7 6.7l-.9.7" 
  fill="none" 
  stroke="green" 
  stroke-linecap="round" 
  stroke-linejoin="round" 
  stroke-miterlimit="5" 
  stroke-width="2">
  </path>
  <path d="m4.4 10.3 5.3 3.3c2.6 1.6 3.9 2.4 5.3 2.4s2.7-.8 5.3-2.4l5.3-3.3" fill="none" 
  stroke="red" 
  stroke-linecap="round" 
  stroke-linejoin="round" 
  stroke-miterlimit="5" 
  stroke-width="2">
  </path>
</svg>
