<svg xmlns="http://www.w3.org/2000/svg" xml:space="preserve" fill-rule="evenodd" clip-rule="evenodd" image-rendering="optimizeQuality" shape-rendering="geometricPrecision" text-rendering="geometricPrecision" version="1.1" viewBox="0 0 38550 54590">
  <path d="M1555 26299C699 26299 0 27000 0 27854v19071c0 856 700 1555 1555 1555h2932c1885 0 7169 6950 8487 6024 1318-926-2730-6060-1044-6024 3931 84 5840 0 8760 0h8759c856 0 1555-700 1555-1555V27854c0-855-778-1913-1555-1555l-9624 4434-90-4434H1554zM20750 38946h2523-2523zm-10127-3473c1663 0 6356-32 8018-32l-8018 32zm-7119-16h2523-2523zm7567 3472c1664 0 5730 33 7393 33l-7393-33zm14549 3328c-1389 0-6160 19-7416 19l7416-19zm-9734 0c-1389 0-2934 19-4192 19l4192-19zm-8073 0c-1389 0-2934 19-4192 19l4192-19zm-4432-3311h4991-4991" fill="#f5f5f5"/>
  <path d="M20750 39777a831 831 0 01-831-831 831 831 0 01 831-831v1663zm2523-1663v1663h-2524v-1663h2524zm0 0a831 831 0 01 831 831 831 831 0 01-831 831v-1663zm-12650-1810a831 831 0 01-831-831 831 831 0 01 831-831v1663zm8018-1695v1663h-345l-406 1-461 2-506 2-541 2-566 2-585 3-596 2-593 3-585 3-569 2-541 2-506 2-461 2-410 1h-347v-1663h345l406-1 461-2 506-2 541-2 566-2 585-3 595-3 594-2 585-3 569-2 541-2 506-2 461-2 410-1h347zm0 0a831 831 0 01 831 831 831 831 0 01-831 831v-1663zm-15138 1680a831 831 0 01-831-831 831 831 0 01 831-831v1663zm2523-1663v1663H3502v-1663h2524zm0 0a831 831 0 01 831 831 831 831 0 01-831 831v-1663zm5044 5135a831 831 0 01-831-831 831 831 0 01 831-831v1663zm7393-1630v1663h-340l-390-1-431-2-464-2-493-2-517-2-530-3-535-3-537-3-528-3-513-2-494-2-467-2-429-2-386-1h-338v-1663h340l390 1 431 2 464 2 494 2 515 2 530 3 537 3 535 3 528 3 514 2 493 2 467 2 429 2 386 1h338zm0 0a831 831 0 01 831 831 831 831 0 01-831 831V38130zm7156 3295a831 831 0 01 831 831 831 831 0 01-831 831v-1663zm-7416 1682v-1663h274l346-1 410-1 461-1 503-1 535-1 557-2 570-2 571-1 561-2 543-1 514-1 476-1 427-1 369-1h299v1663h-297l-367 1-427 1-476 1-514 1-543 1-561 2-571 1-568 2-559 2-535 1-503 1-461 1-410 1-348 1h-276zm0 0a831 831 0 01-831-831 831 831 0 01 831-831v1663zm-2318-1682a831 831 0 01 831 831 831 831 0 01-831 831v-1663zm-4192 1682v-1663h237l244-1 251-1 255-1 259-1 261-1 265-2 269-2 269-1 270-2 273-1 270-1 269-1 267-1 267-1h264v1663h-259l-265 1-267 1-269 1-270 1-268 1-270 2-269 1-267 2-267 2-265 1-259 1-255 1-251 1-246 1h-242zm0 0a831 831 0 01-831-831 831 831 0 01 831-831v1663zm-3881-1682a831 831 0 01 831 831 831 831 0 01-831 831v-1663zM3620 43108v-1663h237l244-1 251-1 255-1 259-1 261-1 265-2 269-2 269-1 270-2 273-1 270-1 269-1 267-1 267-1h264v1663h-259l-265 1-267 1-269 1-270 1-268 1-270 2-269 1-267 2-267 2-265 1-259 1-255 1-251 1-246 1h-242zm0 0a831 831 0 01-831-831 831 831 0 01 831-831v1663zm-241-3330a831 831 0 01-831-831 831 831 0 01 831-831v1663zm4991-1663v1663H3372v-1663H8370zm0 0a831 831 0 01 831 831 831 831 0 01-831 831v-1663" fill="#000" fill-rule="nonzero"/>
  <path d="M1555 26299C699 26299 0 27000 0 27854v19071c0 856 700 1555 1555 1555h2932c1885 0 7169 6950 8487 6024 1318-926-2730-6060-1044-6024 3931 84 5840 0 8760 0h8759c856 0 1555-700 1555-1555V27854c0-855-778-1913-1555-1555l-9624 4434-90-4434H1554zm108 1663v18856h2825c1550 0 3457 1798 5336 3572 265 251 496 524 698 798-377-851-680-1650-665-2340 28-1298 633-2056 2106-2023 2604 55 4313 37 6020 19 1163-13 2245-25 2708-25h8651V28177l-8821 4064c-831 384-1818 20-2202-811a1658 1658 0 01-152-756l-54-2710H1663zm9586 24363c339 581 562 969 772 821 334-234-274-425-772-821" fill="#000"/>
  <path d="m20903 20438 8256 4584-8281 3798 25-8382zm16137-5523c830 0 1510 602 1510 1336v16385c0 735-680 1336-1510 1336h-2848c-1828 0-6960 5971-8239 5175-1280-795 2651-5206 1013-5175-3816 72-5669 0-8505 0H9957c-831 0-1510-601-1510-1336V16251c0-734 678-1336 1510-1336H37040" fill="#f5f5f5"/>
  <path d="m21709 18989 8256 4584c799 445 1088 1456 643 2255a1648.1 1648.1 0 01-811 724l-8230 3775c-831 379-1816 13-2195-818-102-223-150-458-150-688l25-8382c0-915 742-1656 1656-1656 293 0 566 75 805 208l1-1zm-806 1449 8256 4584-8281 3798 25-8382zm16137-5523c830 0 1510 602 1510 1336v16385c0 735-680 1336-1510 1336h-2848c-1828 0-6960 5971-8239 5175-1280-795 2651-5206 1013-5175-3816 72-5669 0-8505 0H9957c-831 0-1510-601-1510-1336V16251c0-734 678-1336 1510-1336H37040zm-153 17394V16578H10110v15731h8351l2631 22c1657 16 3319 31 5849-16 1463-28 2063 708 2087 1970v7c9 445-123 911-323 1398a5855 5855 0 01 347-315c1823-1522 3674-3066 5139-3066h2695zM26830 37738c132 81 296-83 521-377-453 101-884 125-583 340 21 12 42 24 62 37" fill="#000"/>
  <path d="M4782 9892c2040-147 1651 2771 2478-464 458-1793 872-5051 1501-2100 256 1207 627 5057 1580 5070 907 12 871-8058 2151-8096 1215-37 662 11598 1959 10976 1770-850 865-10135 2330-8584 514 543 705 6677 1523 5816 1218-1280 1421-7437 2033-4166 1719 9182 1689-1540 2865-964 1289 631 511 2487 3471 2411l-21890 102zM3979 0c-725 0-1318 592-1318 1318v16168c0 725 593 1318 1318 1318h2487c1596 0 6077 5892 7195 5106 1117-785-2314-5136-886-5106 3332 71 4951 0 7426 0h7426c725 0 1318-593 1318-1318V1318c0-726-593-1318-1318-1318H3979" fill="#f5f5f5"/>
  <path d="M4842 10721c-458 32-857-312-889-769-32-458 312-857 769-889l120 1658zm1612-1500 1612 412-76 293-70 259-65 229-61 205-61 183-61 164-67 153-82 154-119 165-200 183-334 146-379 4-273-98-175-116-123-114-84-96-111-136-116-142-48-53-54-57-49-48-48-39-54-39-52-31-53-25-61-23-71-19-78-13-89-6-111 3-120-1658 257-8 253 17 237 40 222 59 207 76 193 92 172 104 154 108 141 116 122 114 103 108 96 109 134 164 102 125 9 10-34-30-89-59-193-67-299 4-254 111-120 108-37 50 2-6 24-58 37-98 43-132 52-172 59-207 65-242 72-279zm0 0c113-445 568-713 1012-600 445 113 713 568 600 1012l-1612-412zm3121-2066-1627 346-53-238-51-198-47-156-39-114-29-68-7-14 40 51 127 105 275 96 330-31 200-108 84-83 18-23-11 21-25 58-31 81-35 106-38 123-39 142-41 152-40 163-42 177-42 180-40 184-84 388-86 387-42 193-43 190-44 188-45 182-1612-412 41-162 40-171 41-181 42-186 84-385 84-386 44-197 44-193 44-184 44-185 48-178 48-171 51-165 53-160 60-154 65-149 82-152 111-161 180-181 297-163 428-42 375 134 229 192 144 191 98 181 80 187 70 201 67 225 62 249 64 278zm0 0c95 449-192 891-641 987-449 95-891-192-987-641l1627-346zm777 4411-22 1663-289-40-261-102-211-140-163-151-137-163-114-171-96-171-88-178-78-184-72-191-67-198-61-198-60-206-54-214-52-215-50-219-45-218-45-221-42-222-40-221-39-217-37-215-34-208-34-206-60-385-58-347-27-157-23-139-23-124-22-106 1627-346 27 135 28 146 28 156 27 164 58 354 62 385 32 200 34 204 34 206 37 208 38 207 40 206 41 205 43 203 43 195 45 188 48 178 49 173 50 165 49 145 50 131 49 115 45 94 41 73 30 44 13 17-8-7-49-31-92-35-114-16zm0 0c459 6 826 384 820 843-6 459-384 826-843 820l22-1663zm2114-8096 51 1663h-1l190-42 106-64 17-14-32 51-53 110-62 165-65 207-67 243-64 272-61 297-58 319-58 340-54 350-52 364-52 371-49 374-98 754-98 733-50 356-51 343-53 328-55 312-60 293-65 274-73 257-86 244-112 237-169 246-305 252-497 126 22-1663-333 82-150 119-24 31 25-55 42-120 49-173 50-214 51-251 51-276 49-304 49-325 48-340 95-726 98-754 51-382 52-380 54-377 59-370 60-360 64-350 70-337 75-323 82-305 92-285 104-272 126-261 159-248 221-238 324-206 422-95h-1zm1 0c459-13 843 348 856 807 13 459-348 843-807 856l-49-1663zm1623 11058 721 1499h-1l-554 102-525-207-288-309-161-298-111-305-89-328-72-354-64-384-55-415-51-442-44-466-42-487-38-502-37-517-34-527-33-529-33-530-32-525-34-517-37-504-38-487-41-463-44-436-48-402-52-365-54-318-59-265-55-198-44-114 1-6 135 115 343 88-51-1663 560 147 335 304 181 303 120 303 91 320 76 349 65 378 59 407 52 436 47 462 41 481 40 500 37 513 34 525 34 528 33 530 33 529 32 518 37 508 38 491 40 469 42 443 47 409 51 372 55 330 57 278 55 213 49 134 14 34-95-94-313-119-321 55h-1zm1 0c414-197 911-23 1109 390 197 414 23 911-390 1109l-718-1499zm3294-8406-1208 1144v-1l7 3 160 67 315-8 229-124 65-73-11 25-38 112-45 177-44 228-44 272-39 307-38 338-34 363-34 386-32 400-33 414-35 425-35 428-39 432-43 430-48 427-54 419-62 410-71 396-80 380-93 366-110 347-130 329-160 312-197 290-257 267-334 217-721-1499-17 9 29-32 62-93 75-150 79-203 79-249 73-288 69-320 62-349 55-370 50-388 45-402 41-412 39-419 35-421 33-420 33-416 34-407 34-395 37-382 40-365 45-347 51-325 60-304 74-286 95-274 140-274 234-282 418-235 525-12 395 175 268 232v-1zm0 1c315 333 299 860-33 1175-333 315-860 299-1175-33l1208-1142zm317 5813 1204 1146h1l-267 211-436 130-471-94-302-216-172-219-109-202-83-200-70-210-61-217-55-228-52-241-49-253-48-266-43-270-43-276-42-286-79-569-76-564-38-273-37-263-38-252-38-239-37-219-37-198-37-177-35-150-30-110-22-62 3 2 71 95 1208-1144 166 228 94 197 67 188 54 194 47 201 45 215 43 232 41 244 38 253 40 263 39 274 38 277 76 562 79 562 40 270 41 265 41 255 41 237 44 224 43 203 44 182 41 151 39 114 30 73 9 18-48-58-171-119-336-65-294 85-116 89h1zm-1 0c316-333 844-346 1176-30 333 316 346 844 30 1176l-1206-1146zm3453-3746-1634 306-52-256-44-192-38-123-16-44 43 70 255 203 571 35 307-194 65-89-2 8-27 75-37 123-42 157-45 186-48 211-51 228-109 507-119 543-65 287-69 285-72 284-76 284-84 282-88 270-95 266-104 257-115 247-130 237-151 225-177 213-1204-1146 44-55 62-94 70-129 75-161 75-186 75-211 74-228 71-239 68-253 68-264 64-265 61-265 116-534 109-509 53-242 52-226 52-215 53-200 57-187 67-184 91-192 159-224 400-263 666 42 350 287 143 241 84 215 69 229 62 263 61 303zm0 0c84 451-213 886-664 970-451 84-886-213-970-664l1634-306zm2413-1559-732 1494 326 60 302-103 94-84-10 19-47 109-62 171-64 222-68 258-65 284-65 305-63 319-64 327-64 329-67 327-68 315-69 303-74 286-81 269-98 258-131 257-224 278-469 251-627-74-361-282-198-288-146-309-133-359-133-432-135-514-142-606-150-707-159-816 1634-306 154 792 143 678 133 566 122 461 109 357 93 253 64 139 1 4-175-129-450-52-303 153-64 74 20-44 47-127 57-190 61-235 62-267 63-295 62-312 64-325 64-331 68-333 70-329 74-319 79-305 86-290 98-275 120-264 167-265 283-273 503-181 539 104zm0 0c412 202 583 701 381 1113-202 412-701 583-1113 381l732-1494zm3084 2327 42 1663-300 1-282-10-270-23-254-37-238-47-228-62-213-73-202-86-190-100-172-109-160-120-144-127-130-132-114-136-100-133-89-133-79-130-69-123-62-119-55-111-51-102-48-93-44-83-44-78-40-65-40-57-35-47-35-39-37-35-42-33-40-28-51-27 732-1494 180 98 166 112 146 118 134 126 120 132 104 133 89 130 80 127 69 122 64 119 57 113 53 104 49 98 47 88 44 81 43 72 44 67 42 58 43 50 45 48 47 41 53 40 63 40 70 38 84 35 102 35 118 31 143 29 161 23 182 14 208 8 234-1zm0 0c459-11 841 351 852 810 11 459-351 841-810 852l-42-1663" fill="#000" fill-rule="nonzero"/>
  <path d="M3980 0c-725 0-1318 592-1318 1318v16168c0 725 593 1318 1318 1318h2487c1596 0 6077 5892 7195 5106 1117-785-2314-5136-886-5106 3332 71 4951 0 7426 0h7426c725 0 1318-593 1318-1318V1318c0-726-593-1318-1318-1318H3980zm345 1663v15478h2142c1334 0 2883 1391 4424 2841-83-303-131-594-125-872 25-1259 613-1993 2042-1962 2206 47 3653 30 5096 16l2298-22h7082V1664H4325zm7895 20471c146 364 270 570 487 418 344-242-61-284-487-418" fill="#000"/>
</svg>
