<svg xmlns="http://www.w3.org/2000/svg" xml:space="preserve" fill-rule="evenodd" clip-rule="evenodd" image-rendering="optimizeQuality" shape-rendering="geometricPrecision" text-rendering="geometricPrecision" version="1.1" viewBox="0 0 1004751 896222">
  <g fill="#00d8fe">
    <circle cx="500492" cy="448152" r="90148"/>
    <path d="M733273 48184c82829 47821 46598 265641-80924 486514-127522 220873-298043 361161-380871 313339-82829-47821-46598-265641 80924-486513C479924 140650 650445 362 733273 48184zm20289-35143c102237 59027 72655 301665-66072 541947-138727 240283-334066 387220-436303 328194-102238-59027-72656-301665 66071-541947S651325-45986 753562 13041"/>
    <path d="M271477 48183c82829-47822 253350 92466 380872 313340 127521 220872 163752 438692 80924 486513-82829 47822-253350-92466-380871-313339C224880 313824 188649 96004 271477 48183zM251188 13040c102237-59026 297577 87912 436304 328194 138727 240283 168309 482920 66072 541947-102238 59027-297577-87911-436304-328193C178533 314706 148951 72067 251188 13040"/>
    <path d="M40579 448110c0-95642 206753-173175 461796-173175 255042 0 461795 77532 461795 173175 0 95642-206753 173175-461795 173175-255043 0-461796-77532-461796-173175zM0 448110c0-118053 224922-213753 502376-213753 277454 0 502375 95700 502375 213753 0 118054-224921 213754-502375 213754S0 566164 0 448110"/>
  </g>
</svg>
