<svg xmlns="http://www.w3.org/2000/svg" xml:space="preserve" fill-rule="evenodd" clip-rule="evenodd" image-rendering="optimizeQuality" shape-rendering="geometricPrecision" text-rendering="geometricPrecision" version="1.1" viewBox="0 0 4231 4167">
  <path d="M3899 1596v-25l9 10c2-1 4-6 5-4 0 0 25-12 30-43-36 10-11 1-31 17-16 13-8 8-25 20-2 50-2 5 12 25zm164 289c8-11 5-7 9-19-30 3-27 18-33 43l24-24" fill="#664a38"/>
  <path d="m3670 1673-7 34 33-4c-1-53 3-20 12-62l-24-6-15 36zm-27 95c49 1 14 5 32-14 8-8 10-23 14-34l-40 7-6 42zm-1276-79 2 16 46-18h-34l13-27c-25 14-15 5-27 30" fill="#e7d0a1"/>
  <path d="m3790 1766-6 41 45 1c-3-17-9-5 18-14l4-45c-66 4-21 8-61 18zm-2468 555c2-2 4-8 6-6l37-20 5 61c38 13 9 8 33-8l-13-47-24-24c-2 2-7 8-9 10l-15 12c-14 12-8 7-20 23zm2763-714c1-3 3-10 3-9 0 0 22-20-39-44l36 53zm-176 138c29-15 6-9 33-15-13-28-3-11-16-20-24 18-18-1-17 34" fill="#865a49"/>
  <path d="M2099 3881c29-17 3-2 22-30 16-23 60-75 63-104-35-2-37 3-50 27-16 28-43 61-44 83-1 35 5 17 9 23zm-775-1546-2-13c12-16 7-10 20-23l15-12c2-2 7-8 9-10l24 24c-8-41 5-19-22-42a195 195 0 00-15-11c-18-11-4-5-23-11l-32 100 26-1zm804 27c24-8 72-74 80-102-63 15-84 77-80 102" fill="#594e44"/>
  <path d="m2835 2444-12 13-1 23 24 2c9-6 110-47 118-47l5-26-25 2c-47 9-62 33-108 33zm51-2261c6 14-9 11 18 10l27-17 8-17-21 3c-28 7-14-3-32 22zM859 2426c25-3 13 6 27-16 0-42 5-4-24-20l-3 35" fill="#d7d3c9"/>
  <path d="M374 787c2 17 3 34 1 52-1 5-5 26-5 27l1 16c0 2 2 5 3 7 1 2 3 5 4 7 23-29 10-45 23-99 9-35 20-48 24-90-1 1-15 10-18 12L400 681c-10 11-4-1-12 17 0 1-9 27-9 28-6 23-8 38-4 61zm-11 652c-5 31-19 42-30 76 27 9 25-21 18 27 9-10 5 1 13-18 14-33-4-26 33-53 3-28 11-30 19-62-34 12-9 2-27 14-19 12 1 3-25 16" fill="#877a66"/>
  <path d="M1387 3165c34-5 53-61 79-116 14-29 15-21 28-51-57 1-67 15-87 62-18 42-45 72-21 105zM880 3293c20-8 60-65 82-94l14-21c6-10 5-6 12-24 8-19 4-6 12-36-56 16-78 67-111 122-14 24-25 18-9 52zm1740 594 25-16 32-131c-39 10-47 25-58 65l-13 42c-5 17-2 25-7 40h21" fill="#5d5349"/>
  <path d="M1654 931c8-38-39-98-65-132-21-28-13-23-40-33-27 49-16 52 21 98 21 26 40 56 84 67zm616 159c22-22 8 9 14-22 4-21-50-131-62-150-14-23 6-9-23-25-15 21-35 17 13 104l46 79 12 13zm-818 2470c68-11 30-24 62-74 23-36 43-30 46-88-54 2-60 20-78 56-15 30-32 60-30 107zm292 316c29 3 65-41 78-68 6-11 6-17 11-26 12-24 5-6 17-24 10-16 14-37 18-57-32-2-34 3-41 33-9 40 8 2-28 43-19 21-59 75-55 100zm-722-151c31-20 108-147 109-171-69-9-114 145-109 171zm2165-387c15-30 20-81 23-115l-41-17c-18 90-24 121 18 133" fill="#61554a"/>
  <path d="M1892 1650c-4 15-8 26-12 36 0 1-8 16-9 17-11 16-1 4-15 17-5 38-11 28-23 60-7 19-12 43-19 65-2 56-4 17 12 29 28-38 40-86 57-133l72-117-28 5 5-29c-14 12-30 35-39 48zM3209 107c31 1 23-1 48 14l23 13 6 3 86 59-3-46c-17-2-54-31-70-43-42-35-41-33-105-39 8 6 8 8 23 16 5 2 12 3 19 5l-27 18zm-497 2384 58 4-7 26c28-13 24-7 48-16 1 0 17-7 18-8 13-8 10-8 17-14l-24-2 1-23-54 6c-17 15-26 1-58 27" fill="#b7a986"/>
  <path d="M1862 989c6 34-2 3 9 24l46 68c17 16 27 24 42 38 35 32 28 25 51 29-3-73-27-45-54-106l-11-24c-30-52-49-49-84-29zm-49 362c-3-35-39-59-59-79-17-17-19-19-32-38-20-28-10-24-38-34-25 23-30 25-9 60l90 90c25 19 22 20 49 0" fill="#66594e"/>
  <path d="M1046 2218c-10 45-21 51-40 78-75-6 7-15-57-15-20 7-18 12-29 38-10 25-8 25-22 44l-11 65c38-14 42-64 62-90 0 19 0 11-4 23l-17 67c15 12-10 4 27 8l20-24c1-78-1-46-23-100l56-7c38-25 6-23 45-31 2-43 5-19 14-42 5-11 5-7 6-18 1-19 3-8-8-17l-19 20zm245-13c-13 34 0 6-21 31-14 17-10 8-16 32 54 5 32-14 58-50 4 25 7 11 16 18v-30l-64-27 26 26zm2450-273-16-1-19-16c14 26 0 18 28 34 18 11 20 8 43 24l4-44c-6-18-1-9-18-20-16-11-6-4-20-10l-1 31" fill="#775949"/>
  <path d="m2001 840-29-76c-41-73-51-97-112-93 0 56 58 113 84 146 24 31 2 26 57 24zm-497 615c-6-41-35-45-76-78-74-62-52-64-99-70-16 61 13 45 82 113 9 9 14 14 24 21 25 16 38 18 69 16" fill="#63594c"/>
  <path d="M2531 986c47-12 25-48 15-97-7-34-11-118-46-127-60-16-23 80-14 105 11 29 13 33 19 60 7 27 5 39 26 60zM1890 3493c10 9-6 14 19-1 20-12 51-57 63-81l51-123c-40-4-41-4-59 28-53 96-24 30-57 128-9 27-29 35-18 49zm347 32c78-14 76-79 101-134 14-32 15-25 20-68-54 11-87 114-108 167-7 20-5 1-14 35zm599 57c65-21 49-92 73-159 5-14 21-39 9-50-40-40-86 157-82 210zm-1084-479c56-7 48-31 75-81l10-19c13-28 56-85 5-74-27 6-25 10-47 59-13 30-34 75-42 114zm733 590 15-1c26-12 30-46 46-67 27-39 47-56 52-106-70 11-36-12-97 122-9 20-21 34-15 53zm171-392 41-1 41-137c-45 9-19-9-42 22-3 4-15 30-17 36-13 28-27 52-24 80zm-1283 603c41 12 38-25 52-58 18-42 54-44 29-85l-28 24c-16 18-63 93-53 118" fill="#63564c"/>
  <path d="m2154 2450 51 31-14-40c76 1 12 14 78 25 9 2 65 7 72 6-17-8-39-16-65-18 27-62 45-32 48-95-34 10-41 49-54 62-23 23 5 13-34 16 5-19 13-35 21-54 12-29 17-27 28-56-46 8-9 0-47 37-16 15 1 8-23 16-1-44 38-44 57-91 10-25 5-24 23-55-62 23-67 70-112 118-41 44-35-13-29 47 3 1 7-1 8 2 9 15-8 6 54-6-21 47-57 26-28 36-20 30 3 8-33 20zm616 14 54-6 12-13-46 4c25-58 43-31 65-38-13-24 8 5-10-11-1-1-4-3-6-5l-14-11c7-23 33-26 11-49-18-20-16-16-40-21-20 84 9 51-27 151" fill="#2d2a26"/>
  <path d="m400 681 7 38c3-2 17-12 18-12l20-57c41-71 50-109 115-175 77-77 166-71 228-79h25l-3-14c-137-61-306 58-352 168-27 66-54 96-58 131zm3313 904-5 39h28c6-21 0-7 14-26 6-9 17-23 22-28l40-34c11-10 23-22 39-35 75 12 47-24 135 4 28 9 84 54 106 29-31-55-129-80-206-66-100 17-107 49-171 116zm-2686 594-10 14c-17 23-9 17-42 27-31 11-75 69-82 109 0 3-2 16-1 18 5 23-3 3 7 16 13-18 12-19 22-44 10-26 8-31 29-38l12-29c18-9 66-27 85-33l19-20c8-4 1-6 18-6 3 0 21 5 23 6 39-5 45-9 90-5 13 1 34 2 45 4 42 7-5 10 50 10l-26-26c-61-26-172-28-238 0zm1990-2071v17c26-1 54-20 81-23 45-5 71-3 111 7l27-18c-6-2-14-3-19-5-15-8-16-10-23-16-48-3-155 7-177 40zm-376 2387 5 36 117-11 7-25-58-4-64-4" fill="#e6dbcb"/>
  <path d="M1792 1949c0-20 4-36 8-51l14-52c7-22 12-45 19-65 11-32 18-22 23-60 14-54 2-13 1-58 0-17 23 13-4-19-33 6-8-1-21 11-32 30-56 125-70 168-17 52-51 160-33 215l9 19c14 16 5 12 27 18 5-27 3-40 6-63 4-37 9-49 23-64zm-693-833c20 24 30 41 59 44 6-39-7-86-39-100-20 29-18 21-20 56zm-71 86c70 0 39-59 2-67-15 29-12 40-2 67" fill="#151310"/>
  <path d="m908 2642-6 7c34 11 22 2 51 32 1 1 3 3 4 5l27 23c38 24 138 25 175 17l12-20c1-2 3-5 5-8-60 3-60 6-91-14 8-43 31-80 48-128 15-42 48-88 52-114 10-73 2-52-6-62-2 6-6 19-9 27l-51 99c-14 20-17 22-20 40l-33-2c-1-2-3-2-5-1-26 64-11-44-41 87l-18 46-36-22c-17-31-6-16-27-27 0 0-20-7-24-9-10 8-12-18-8 25" fill="#c17a66"/>
  <path d="m1073 2395-26 23c-6 9-10 20-15 34-7 39 17 36 17 37l6 11c1 1 2 4 3 5 37 50-16 1 15 16 31-34 36-94 70-136 32-39 24 2 30-50l-78 7-22 52zm-21-121 12 14c0-1 5-5 6-3 1 2 5-3 14-9 6-3 10-4 15-8 11-9 5-4 9-10-11-31-8-28-3-60-3-1-20-6-23-6-17 0-10 2-18 6 11 9 9-2 8 17 0 11-1 7-6 18-9 22-12-1-14 42" fill="#c17a66"/>
  <path d="M2689 2129c29 1 40 10 62 8 2 0 45-8 58-11 75-14 0-6 84-40 12-5 6-2 14-6l67-41c48-42 62-63 123-44l18 8c-9 32-18 19-36 48l63-38c15 18 3-10 2 20 0 13-19-37-2 22 0 0-18 8 25 15 58 9-12-17 28-7-33 20-12 19-9 55 25-25 31-59 20-93-6-19-34-62-44-71-49-41-129-9-173 15-31 17-46 37-70 48l-160 68c-11 5-24 10-35 16 0 0-15 10-17 11-12 8-8 5-16 14zm-797-479c9-14 25-37 39-48 30-82 95-127 131-164 18-18 6-3 17-21h-24c-29-2 4 5-21-5l8-25-23 8-1 53c-42-10-21-14-59 20-23 21-28 18-49 58l-51 63c3 53-6 50 32 62" fill="#221e19"/>
  <path d="M1306 1642c-22 9-46 12-58 40-31 73 1 207 98 185 66-14 79-124 29-207-19-32-30-34-69-18zm2015-510c-95 44-44 233 51 202 100-32 22-236-51-202" fill="#090706"/>
  <path d="m1322 2321 2 13c-11 18 6 21-62-12l9 77c27-3 3-6 43-32 17-11 6-7 28-14 8 67 2 22-32 61-6 7-6 14-18 30l-95 197c-4 38 24 55 40 21 0 2-2 17-2 18 3 30-2 11 7 26 32-19 31-7 62-31 23-7 65-43 66-66 19-58 27-26-15-34-11 29-17 50-46 60 7-19 11-39 19-60 11-25 20-27 30-51 33-64 3-3 3-32 0-17-4-5 5-38-24 3-17 4-33 6-2 0-5 1-8 1l-13 1c16-20 6-2 22-23l7-11c28-42 27-25 29-72l-5-61-37 20c-2-2-4 4-6 6zm-347 91-20 24c-10 10 19 11-32 18 2 13 5 17 6 20 14 43-6 35-7 36-34 13-10 2-24 37l-36-24 2 32c3 29 2 30 17 43 28-20 21-47 91-56-13-53-6-47 3-59 24-6 26-12 37-47 9-29 17-47 20-71-32 12-36 3-25 46l-33 1" fill="#bd7964"/>
  <path d="M1106 2197c-5 32-8 29 3 60l72-33-35 85c-34 7-8 4-23-7l-12-17c-15 36-35 77-37 110l22-52 78-7c-6 52 3 10-30 50-34 41-38 101-70 136-31-15 22 34-15-16-1-1-2-4-3-5l-6-11s-24 2-17-37l-27 41c-14 27 8 16-27 32l-4-40c-9 12-16 7-3 59-70 8-64 36-91 56 7 20 0 8 9 22 17 27 3 8 19 21-4-43-2-17 8-25 3 2 23 9 24 9 20 11 10-3 27 27l36 22 18-46c30-131 15-23 41-87 2 0 4 0 5 1l33 2c4-18 6-20 20-40l51-99c3-8 6-22 9-27 8 10 16-11 6 62 28-37 23-76 69-87-1 24-4 33-11 49l23 7v24l27-6c3 30 1-14 0 16 12-16 12-23 18-30 34-39 40 6 32-61-23 7-11 4-28 14-41 26-17 28-43 32l-9-77c68 33 52 31 62 12l-26 1 32-100c-9-7-13 7-16-18-27 37-4 55-58 50 6-24 2-15 16-32 20-25 8 3 21-31-54 0-7-2-50-10-12-2-33-3-45-4-45-4-51 1-90 5" fill="#a46c53"/>
  <path d="M1370 2357c-2 47-2 30-29 72l-7 11c-16 21-6 4-22 23l13-1c2 0 5-1 8-1 15-3 8-3 33-6-9 32-4 20-5 38-1 29 30-32-3 32 29 10 22-20 17 25-1 9-16 21-21 26 42 8 34-24 15 34 30-20 24-22 35-56 7-20 18-43 23-65 10-46 0-119-25-139-23 17 6 21-33 8zm2366-733 70 24c-10-20-26-22-39-48 44-20 0 3 23 2 13 0 11 21 10-27l-28-5c-4 6-15 20-22 28-14 18-8 5-14 26" fill="#a46c53"/>
  <path d="M638 1315c8 48 35 80 39 125 37 26 20 22 68 13 2-45-21-62-12-99 38 6 22 17 41 49 79-29-6-64 35-143 30 14 31 33 30 69 30-8 67-30 70-68l-1-35c10-38 34-5 52-2 22-25 45-39 49-63 8-46-26-39-5-86 48 2 12 5 44 45l42-36c-7-48-5 5-12-32-3-18-10-16 5-32 21-22 18-7 28-2 23 12-7 5 25 23l27-27c-3-25-8-29-19-46-8-12-13-22-23-35 0 0-17-20-17-21-16-15 9 2-20-16 5 36 9 5-48 60-32 30-22 10-57 50-64 75-51 40-89 77L774 1190c-26 26-128 99-114 136-10-26 2-4-22-13zM2760 567l-3 32c63 12 309 138 330 177 41 7 100 67 149 96 52-127 34-19 39-115-18 9-13-6-19 11-10-39-53-52-104-85-38-24-84-51-114-70-118-71-1-25-140-66l-17-3c-23-4-47-10-78-7-7-8-18 19 0-18-44 22-17 12-45 47" fill="#ac6c54"/>
  <path d="M2805 520c-18 36-7 10 0 18 31-3 55 3 78 7l17 3c139 41 22-5 140 66 31 19 77 45 114 70 51 33 94 46 104 85 5-17 0-1 19-11v-9l27-101c29-94 4-155-21-249-30-127-150-152-272-94-35 17-200 149-207 216zM1266 2435v-24l-23-7c-34 30-18 27-36 66l-35 71c-22 41-67 121-36 147 34-12 28-32 35-58 9-32 1-10 12-31 46-83 31-85 82-164" fill="#c47d6b"/>
  <path d="M1934 2651c-10-23-13-32-28-52l4 46c-32-22-59-37-59-61 0-2 2-7 1-9-2-32-14-16-32-45-19-31-1 1-10-32-3-11 0-9-6-20 0 0-7-10-8-10-24-26-10-9-30-22 7 52 15 87 37 126 31 56 12 42 52 109l220 275c60 54 136 92 197 130 52 32 14 20 116 52l18 3c81 9 42 18 164 21l8 1c1 0 4 1 5 1 68 14 52-2 82-4h4l18 1c2 0 8-2 11-3 33-8 209 2 361-71 94-45 106-44 187-113l126-131c1-1 3-3 5-4l18-17c11-12 16-17 24-29l90-129c40-48 36-91 69-152 16-30 23-44 21-66v-22c3-17 23-25-5-48l28-9c0-11 0-30 2-40l4-13c13-45 19-151 6-199-8-28-14-8-12-37 6-59-38-217-70-294l12 62c-22 18-17-13-35 7 8 18 21 17 5 44 17-15 9-12 35-18-1 39 10 55 19 88 28 96-3 293-30 388-6 20-10 21-15 31-7 17-1 80-60 138l-14 12c-32 34-3 46-37 94l-24 29c-1 2-3 4-4 5-48 70-168 202-235 234-40 19-96 50-134 71-50 28-273 89-332 87-29-1-75-13-92-13-54 0 25 3-20 7-39 3-177-22-219-36-202-66-117-47-216-102-117-65-62-61-117-91l-86-76c-46-59-57-59-17-91zm1340-1778c-6 36-13 38 16 63 23 20 43 35 63 46 20-11 5 3 26-20l29-110c-18 14-3-17-19 19-13-11-26-17-44-36-39 26-19 42-70 38zM363 1439c27-13 6-3 25-16 18-12-7-2 27-14-7 32-15 34-19 62 16 26 30 59 45 89 49 4 60 13 80 15 0-40 1-51-33-68 8 14 6 13 11 27-19-4-26-15-37-30-86-109 30-113-102-109 6 27 7 10 2 43" fill="#2b2925"/>
  <path d="M3299 415c83 10 58 12 68 96 5 42 1 96-15 138-88-13 35-58-15-105l-10-8c32-6 12 22 24-25-30-25-33-26-52-97zm-282-291c-19 24 1 4-23 22 0 0-14 9-15 10-17 10-33 13-48 19l-27 17c-19 23-36 45-64 62-16-17-19 25-10-31l-18 13c-2 1-3 3-5 5l-35 35c-9 9-8 7-18 18l-144 250-20-14c-163-29-141-37-356-64-195-25-192-14-348 1-81 8-93 3-172 14-68 9-112 21-177 35l-309 102-1 32c46 3 121-38 163-53 41-14 46-2 86-20 187-85 670-107 859-62l249 49c2 0 5 1 7 2l19 6c29 10 54 12 72 41 30-25 76-192 173-263 94-70 156-150 305-118 68 15 173 53 149 131 23 16 31 23 42 58-32-4-42-11-66-21 25 94 49 155 21 249l-5 32c76-29 22-7 42 0l-11 48c-20 9-13 2-25 6-23 8-13 1-29 14v9c-5 96 13-12-39 115-49-29-109-89-149-96 9 20 72 61 111 92 19 15 23 12 48 18l18-42 10 29c51 4 31-11 70-38 18 18 31 24 44 36 16-35 1-4 19-19 8-49 25-110 30-156 18-157-17-139 61-154 6 132-66 225-13 246l32-129c11-53 9-95 18-150 9-56-3-92-5-146-2-49-19-99-35-135-3 8-4 4-5 21v15c4 55 27 51 13 192l-1 42c0 2-1 5-2 7 0 2-2 9-2 7 0-1-2 5-3 7-88-14-26-39-53-185-28-149-63-162-66-176-1-4-4-5-6-7l3 46-86-59-6-3-23-13c-25-15-17-13-48-14-40-10-66-12-111-7-27 3-55 23-81 23zm-568 2195c-27-26-8 3-15-29-3-13 10 9 0-21-25 16-33 43-48 66-8 13-25 31-28 36-41 58-6 43-3 48 79-64-12-93 87-93-18 50-43 53-52 112 20-7 9-3 25-15 37-28 30-58 70-104 17-19 2 8 16-20 15-30 6 3 13-47-26 8-37-5-65 67" fill="#3e3932"/>
  <path d="M2128 2362c-3-25 17-87 80-102-8 28-56 94-80 102zm320-44c28-73 39-59 65-67-7 50 2 17-13 47-14 28 0 1-16 20-40 46-33 76-70 104-16 12-5 7-25 15 10-59 34-62 52-112-98 0-8 30-87 93-3-5-38 10 3-48 3-5 20-23 28-36 14-23 22-50 48-66 9 30-3 8 0 21 7 32-12 3 15 29zm99 2c-24 31-11 18-26 54-9 21-14 25-35 34 12-62 16-57 40-99 86-149-11-71-48-85 4-20 7-29 51-32 36-2 32-3 59 19 10 16-34 100-42 109zm31-38c39-6 34 9 50-38 14-39 9-47 52-52-13 43-66 128-89 146l-7-35c0-2-1-6-2-8l-5-14zm411-91c-44 11-20 53-32 30-1-2-2 5-3 7-11-14-20-16-16-38 0 0 18-30 19-32 58 17 19 23 77 38-15 24-18 14-24 30-12 32 10-17-3 34-27 104 22 38-19 83-45-17-11-65 1-92 27-62 2-55-1-60zm-301-63c-6 5-3 22-39 5-25-11-12-5-22-26-20-2-8-3-14 10-6 20-1 11-12 22-86 3-133 15-229 2-62-9-135-38-201-4-46 24-102 81-105 147-6 104 66 133 87 164 36-12 13 10 33-20-29-10 7 11 28-36-63 12-45 21-54 6-2-3-6-1-8-2-6-60-12-3 29-47 45-48 50-95 112-118-17 31-13 31-23 55-19 47-58 47-57 91 24-8 8 0 23-16 39-37 1-28 47-37-11 29-16 27-28 56-8 19-15 35-21 54 39-3 11 7 34-16 14-14 20-52 54-62-3 63-21 33-48 95 26 2 48 10 65 18-7 1-62-4-72-6-66-11-2-24-78-25l14 40c44 17 132 21 157 35-12 43-22 56-15 124 20 22 17-28 17 26 1-39 18-14-9-27 0-20-1-35 3-54l5-15 3-6c22-66-11-67 33-84 20-9 11-14 38-25l42-17c33-2 42 7 53 16l18 12 53 31c32-14 16-10 46-11l64 4c32-27 41-13 58-27 36-100 6-67 27-151 24 5 22 2 40 21 22 24-4 26-11 49l14 11c2 1 4 3 6 5 18 16-2-13 10 11-22 7-40-20-65 38l46-4c45 0 61-24 108-33l97-60c18-48 15-12 51-52 14-16 28-34 44-53 20-25 64-83 50-125-3-37-24-35 9-55-40-10 30 16-28 7-43-7-25-15-25-15-17-59 1-9 2-22 1-30 13-1-2-20l-63 38c19-29 28-16 36-48l-18-8c-60-19-74 2-123 44l-67 41c-8 4-2 1-14 6-84 34-9 25-84 40-13 2-56 11-58 11-22 1-33-7-62-8zM902 2649l6-7c-16-13-2 6-19-21-8-14-1-1-9-22-15-13-15-14-17-43-21-13-19-12-18-47 0-18 7-38 11-52l4-30 3-35c3-11 8-31 11-37 18-39-1-6 19-24 8-40 51-98 82-109 16-27 25-31 52-41 66-28 177-25 238 0l64 27v30c19 6 5 0 23 11 6 4 10 7 15 11 27 23 14 1 22 42l13 47c25 20 35 94 25 139-5 22-16 45-23 65-11 34-5 37-35 56-1 23-43 59-66 66-15 28-15 27-58 40-26 8-59 13-87 11-37 7-136 7-175-17-40-2-15-7-38 10 45 89 327 48 391-3 99-80 79-47 134-201 21-58 12-178-26-234l-178-151c-55-24-255-19-314 44-68 71-89 36-137 195-28 91-29 192 29 264 49 60 48 74 98 87-17-68-19-28-40-70zM590 897c14-27-8-23 49-132 19-37 56-63 101-83 52-23 97-7 149 14 59 24 65 67 100 83l2-8c-1-1-7-6-8-8l-3-6c-1-2-1-5-2-7l-1-17c30-1 25 17 62 22-78-94-175-195-311-131-55 26-17 29-59 66-39 34-33 8-63 60-20 33-38 35-46 81-8 44-15 56-13 104 23-6 5-1 19-13l9-9c11-10 4-6 16-14zm383 413c6-26 9-13-6-37-14-22-7-17-33-23-11 20-13 28-1 47 3 5 8 11 14 14 35 16 26-1 26-1" fill="#13100d"/>
  <path d="m2645 3871-25 16c-11 11 0 10-36 16-68 11 6-14-95 20-9 3-59 17-68 18-50 9 15-12-71 15l-42 6c-36 5-43 12-63 14-31 5-102 10-131 9-40 0-106 8-158 4l-208-11c-23-2-33 0-55-2-34-3-26-10-60-9-22 0-50 3-76 2-52-15 40 20-15-10l-103-16c-80-11-119-18-186-47l-107-44c-50-24-96-35-144-59-99-50-183-98-265-150-82-51-116-88-151-105l-33-20c-6-6-5-13-28-25-22-11-12-7-40-11l98 112c45 36 192 162 227 179 27 13 153 103 259 153 45 21 97 43 145 59 27 9 41 17 68 28 45 19 19-2 86 20 72 24 344 75 409 69 42-3 36 4 80 9 35 4 63-1 82-1 60 2 432-46 551-86l90-27c25-12 39-23 74-34 43-13 122-70 155-42 24-57 22-33 77-58l124-79c31-36 25-15 87-55 51-33-1 10 47-14 36-20-10 0 40-49 22-21 26-24 46-48l14 5c1 0 5 2 6 2 95 18-28-9 55-16l-21-36 50-47c30-31 94-83 115-114 12-18 18-30 28-43 52-71 54-50 73-49 2-47 6-65 32-94 32-36 26-56 47-76 37-36 3 25 44-54l3-6c18-31 10-2 15-35 4-24-10-36 58-35l-8 41 28-56-61 13c19-73 30-118 67-127-21-27-2-44 9-71 13-30 9-43 25-79-21 12-20 8-36 32-20 30-11 37-27 61-1 1-3 3-4 5-1 1-3 3-4 5-49 57-27 96-143 238-86 104-116 187-239 282-1 1-4 2-5 3l-23 23c-4 5-21 27-27 33l-282 230c-32 23-31 17-59 46-47-3-19 13-34-18-1 36 1 33-33 57-38 27-121 87-165 67l-34 38c-15 14 17 5-23 18-9 3-10-2-31 9zM2068 1360c17 2 27-1 32 17 10 42 2-11-19 41l112-70c66-62 61-26 118-59 33-19 90-44 124-52 38-8 111-25 137-33l-6-45c-2 0-5-1-8-1l-123 15c-175 56-104 38-195 76-52 22-130 56-134 109-27-9-24-7-38 0" fill="#26221d"/>
  <path d="M4117 1832c1 3 3 6 3 8l14 42-40 16c-27 18-40 47-59 66-10 10-15 13-25 18-7 4-23 12-29 16-23 13-58 25-85 17-40-5-34 2-50-23-37 3-38-10-70-17-23-16-25-13-43-24-27-17-14-8-28-34l-32-44c-11-12-3 5-15-24-6-14-3-8-6-22-4-17-6-40-10-58l6-42c1-26-3-13 6-35 6-16 5-10 14-18l15-36c16-39-4-31 28-52 64-68 71-99 171-116 78-14 175 11 206 66 59 30 15 11 31 47 8 18 17 11 28 47l3 79c-4 23-9 30-31 42 43 15 19-7 18 30-1 17 8 34-24 52zM1228 618c-48-11-35-35-104-111l-9-9C996 369 920 311 730 300c-48-3-36-11-84 2-1 0-4 1-6 1-34 9-24 14-73 47-19 13-27 19-46 34-29 22-63 57-82 86-20 31-42 66-57 102-67 157-75 218-72 392 1 60-14 10 6 98 11 48 6 81 25 149 16 56 32 96 11 125-26 35-30 16-73 95l-99 184c-7 15-7 14-16 29l-68 171c-75 217-48 208-82 333-12 45-10 107-16 151l8 297c2 22 11 47 14 65 12 61 40 215 65 262 15 29 15 24 26 62 25 86 108 254 162 332 95 136 104 152 215 279l171 156 408 254 300 106 358 48c55 1 93 9 159 9l327-9c73-1 296-64 382-103l121-47c27-11 30-12 53-27l218-109c82-41 177-109 247-168 47-39 129-111 167-160 33-43 52-43 83-84l142-184c21-26 116-186 121-213l8-41c-68-1-54 11-58 35-6 33 2 3-15 35l-3 6c-41 79-7 19-44 54-21 20-15 40-47 76-26 29-30 47-32 94-19-1-21-22-73 49-10 13-16 25-28 43-20 30-85 82-115 114l-50 47 21 36c-84 6 40 34-55 16-1 0-5-2-6-2l-14-5c-20 24-24 26-46 48-50 49-4 30-40 49-48 24 4-20-47 14-62 41-56 19-87 55l-124 79c-55 25-53 1-77 58-33-27-112 29-155 42-36 11-50 22-74 34l-90 27c-119 39-491 88-551 86-19-1-47 4-82 1-43-5-38-12-80-9-65 5-337-46-409-69-67-22-41-2-86-20-27-11-41-19-68-28-48-16-100-38-145-59-106-50-232-140-259-153-35-17-182-143-227-179l-98-112c-4-19-101-96-140-188-17-41-14-25-36-52L200 3033c-7-20-7-37-17-63-45-114-85-258-96-381-26-301-3-327 37-591 21-136 142-362 158-416 15-55-12-6 36-46l6-3 10-15c11-34 25-45 30-76 5-33 4-15-2-43 131-4 16 0 102 109 11 14 18 26 37 30-5-14-3-14-11-27-16-47-32-118-59-155-17-24-31-107-46-169-8-34-47-351-9-396-3-23-1-38 4-61 0-1 9-28 9-28 8-18 2-6 12-17 4-35 31-65 58-131 46-110 215-229 352-168l53 5c10 1 14 0 25 4 41 16-4-8 20 16 41 9 57 38 84 65l136 129c32 33 21 41 60 70-11 36-10 7-30 49l68-5 13 25 30 3c1 2 2 5 3 6 1 1 2 4 3 6 1 2 6 9 7 11 14 20-12 1 13 14 9-21-1-28-14-52-1-2-3-3-4-7-1-4-3-5-4-7 15-29 29-34 77-48 33-10 56-18 87-25l494-87c44-3 73 0 117-9 40-8 258 19 311 24 117 11 282 59 389 107 32 14 84 34 115 45 16 6 19 5 32 11l179 104c169 104 215 150 361 292 29 28 49 57 75 93 16 22 20 26 35 45 13 17 22 33 33 46 22 27 22 14 41 47l86 153c-33 90-88 86-105 243-18 159 52 227 178 274l84 32c35 191-1 377-15 544-3 35-35 79-31 141-16 35-12 48-25 79-11 27-30 44-9 71-36 9-48 54-67 127l61-13c36-43 76-203 90-234 1-2 8-15 11-24l56-288c4-55 11-86 11-140 0-44 3-99-1-141l-8-124c30-3 40-2 58-12 19-10 42-25 59-38l56-41c59-45 205-292 62-444-34-36-27-22-60-46-25-19-21-24-57-40-76-33-146-25-216 2-19 7 1 1-19 7-11 3-27 7-34 10-31 9-1 7-42 11-106-159-143-242-285-395-75-80-60-45-14-168 13-36 32-74 43-115-53-21 19-114 13-246-78 16-43-3-61 154-5 46-22 108-30 156l-29 110c-20 23-6 9-26 20-20-11-40-26-63-46-28-25-21-27-16-63l-10-29-18 42c-25-6-29-3-48-18-39-30-101-71-111-92-44-3-125-61-171-85-72-38-153-61-174-73-1-22-6-7 3-32 8-24-2-4 14-18 27-35 1-25 45-47 7-67 171-199 207-216 121-58 242-33 272 94 24 10 35 17 66 21-11-35-19-41-42-58 25-78-80-116-149-131-149-32-212 49-305 118-96 72-142 238-173 263-17-29-43-31-72-41l-19-6c-2-1-5-1-7-2l-249-49c-189-44-671-23-859 62-40 18-44 6-86 20s-117 56-163 53l1-32" fill="#0e0c09"/>
  <path d="m2590 530 20 14 144-250c10-11 9-9 18-18l35-35c2-1 3-3 5-5l18-13c24-14 33-26 57-41 17-25 4-15 32-22 2-2 5-7 6-5l39-25c23-13 28-14 55-23 22-33 129-43 177-40 64 6 62 4 105 39 16 13 53 41 70 43 2 2 5 3 6 7 3 14 38 27 66 176 28 146-35 171 53 185 1-2 3-9 3-7 0 1 2-6 2-7 0-2 1-5 2-7l1-42c14-140-9-137-13-192v-15c1-17 2-13 5-21-22-85-127-174-200-213-46-25-149-12-192 0-11 3-11 2-22 5-19 4-21 3-43 10-14 4-28 10-38 15-36 18-40 38-96 63-35 15-132 102-160 132-1 1-3 3-4 5l-20 24c-51 52-135 188-129 263" fill="#0e0c09"/>
  <path d="M1373 3904c-9-26 37-100 53-118l28-24c25 41-10 42-29 85-14 32-11 70-52 58zm725-23c-4-6-10 12-9-23 1-22 28-55 44-83 13-23 15-28 50-27-3 29-47 81-63 104-19 27 7 13-22 30zm-355-5c-5-24 36-79 55-100 36-40 19-3 28-43 7-31 9-35 41-33-4 20-8 41-18 57-12 19-5 0-17 24-5 9-5 15-11 26-13 27-49 71-78 68zm-721-152c-5-26 40-180 109-171-1 24-78 151-109 171zm1462-31c-5-19 6-33 15-53 61-134 27-110 97-122-5 50-25 67-52 106-15 22-20 55-46 67l-15 1zm-1032-134c-2-46 15-77 30-107 18-36 24-54 78-56-3 58-23 52-46 88-32 50 5 63-62 74zm1384 22c-3-52 42-250 82-210 12 12-4 36-9 50-24 67-8 138-73 159zm-599-57c8-35 6-16 14-35 20-53 53-156 108-167-5 43-6 36-20 68-25 55-23 120-101 134zm-347-32c-11-14 9-22 18-49 33-98 3-33 57-128 18-32 19-32 59-28l-51 123c-12 24-43 69-63 81-26 15-9 10-19 1zm1297-156c-42-12-36-43-18-133l41 17c-3 35-8 85-23 115zm-530-36c-3-28 11-51 24-80 3-6 15-32 17-36 23-31-3-14 42-22l-41 137-41 1zm-1776-8c-16-34-5-28 9-52 33-55 55-107 111-122-8 30-5 17-12 36-7 18-6 14-12 24l-14 21c-22 29-62 85-82 94zm507-127c-24-33 3-62 21-105 20-47 30-62 87-62-13 30-14 23-28 51-27 55-46 111-79 116zm365-63c8-39 29-84 42-114 22-49 20-53 47-59 51-11 8 46-5 74l-10 19c-27 50-19 74-75 81zm-768-394-27-23a21.8 21.8 0 01-4-5c-28-30-16-21-51-32 21 42 23 2 40 70-51-13-49-27-98-87-58-72-57-173-29-264 48-159 70-124 137-195 59-62 259-67 314-44l178 151c38 57 47 176 26 234-55 154-35 122-134 201-63 51-346 92-391 3 23-17-2-12 38-10zm322-1067c39-16 50-14 69 18 50 83 37 193-29 207-97 21-129-112-98-185 12-28 36-31 58-40zM193 1949c-18-27 9-106 24-162 7-26 17-36 26-69 4-14 2-52 47-51 10 33-1 45-19 77-58 103-56 191-78 205zm1851-563 26-27c14-7 11-9 38 0 4-53 82-87 134-109 92-38 21-21 195-76l123-15c3 0 6 1 8 1l6 45 214 3 24-29c44-26 268 65 301 87l52 36c28 22 0 3 29 15l114 89c28 20-11-10 10 7 6 5 34 32 45 44 33 39 50 60 74 101 59 97 94 190 116 225 32 77 75 235 70 294-3 29 4 9 12 37 13 48 7 154-6 199l-4 13c-2 10-2 29-2 40l-28 9c28 23 8 31 5 48v22c2 22-5 35-21 66-33 62-29 105-69 152l-90 129c-8 13-13 18-24 29l-18 17c-1 1-3 3-5 4l-126 131c-81 69-93 68-187 113-153 73-328 63-361 71a45 45 0 01-11 3l-18-1h-4c-30 2-14 18-82 4-1 0-4-1-5-1l-8-1c-121-3-83-12-164-21l-18-3c-102-31-64-20-116-52-61-38-138-76-197-130l-220-275c-40-67-21-53-52-109-21-39-30-74-37-126-9-48 23 5-9-63-19-40-6-52-28-113-1-3-4-11-5-13l-8-39c0-4-7-56-7-56 4-40-3-20 28-36 2-1 14-5 16-6h18c2 66 10 42-27 53 46 14 18-1 25 27l10 49c0-1 2 5 3 7 1-54-7-116-7-163 0-39 14-96 16-143-14 15-19 27-23 64-3 23-1 36-6 63-22-6-13-2-27-18l-9-19c-18-55 16-163 33-215 14-43 38-138 70-168 13-12-12-5 21-11 27 32 4 2 4 19 1 45 13 4-1 58 15-12 4-1 15-17 1-1 9-16 9-17 5-10 8-22 12-36-38-12-29-9-32-62l51-63c21-41 26-37 49-58 38-34 17-30 59-20l1-53 23-8zm-713-81c47 6 24 9 99 70 41 34 70 37 76 78-31 2-44 0-69-16-10-6-15-12-24-21-69-67-98-52-82-113zm-490 23c14 26 23 25 32 39 17 26 16 28 4 56-65 9-47-68-58-107 0 0 1 1 2 1l2 1 18 9zm2481-197c73-34 151 170 51 202-94 31-145-158-51-202zM968 1272c15 24 12 11 6 37 0 0 8 17-26 1a37.6 37.6 0 01-14-14c-12-19-10-27 1-47 26 6 19 1 33 23zm788-2c20 20 56 45 59 79-27 20-24 19-49 0l-90-90c-21-35-16-37 9-60 28 10 18 6 38 34 13 18 15 20 32 38zm-726-69c-10-27-13-38 2-67 37 8 68 68-2 67zm90-142c32 14 45 61 39 100-29-3-38-21-59-44 2-35 0-26 20-56zm752-48c-12-22-4 9-9-24 35-20 54-23 84 29l11 24c27 61 51 33 54 106-23-4-16 3-51-29-16-14-25-22-42-38l-46-68zM545 972c0-1 14-24 15-24l18-8c2-5 7-2 12-3l-18 78c-23-7-35-6-27-43zM2200 892c29 16 9 2 23 25 11 18 66 129 62 150-6 31 8 0-14 22 0-1-11-11-12-13l-46-79c-48-87-28-83-13-104zm287-28c-9-25-46-121 14-105 35 10 39 93 46 127 10 50 33 86-15 97-21-21-19-33-26-60-7-27-9-31-19-60zm-937-100c27 11 19 6 40 33 26 34 72 94 65 132-44-11-63-41-84-67-37-45-47-49-21-98zm-405 203c11 17 16 21 19 46l-27 27c-32-18-2-11-25-23-10-5-7-20-28 2-15 16-8 14-5 32 7 37 5-15 12 32l-42 36c-32-40 4-43-44-45-21 47 13 40 5 86-4 24-27 37-49 63-18-3-41-36-52 2l1 35c-3 38-39 60-70 68 1-36 0-55-30-69-42 79 43 114-35 143-19-33-3-44-41-49-9 37 14 54 12 99-48 9-31 13-68-13 21 55 16 0 19 54-32-6-54-39-71-75-5-11-5-14-10-25l-30-77c-15-66-28-160-46-220 27-15 6-11 38-7-13 28-14-1-25 40 27 7 27 17 36-8 6 59-7 115 1 146l32 3c-7-64-22-131-27-186-7-68 6-120-5-189-12 9-6 5-16 14l-9 9c-14 12 4 7-19 13-2-48 5-60 13-104 9-46 27-48 46-81 30-51 25-26 63-60 42-37 4-40 59-66 136-64 233 37 311 131l6 22c-1 2-3 4-5 7-10 16-4 3-10 27 65-17 36-21 67 14 10 12 5 3 19 18 16 19 12 26 25 44 18 26 61 43 39 94l-36-11zm828-206 29 76c-55 3-33 7-57-24-26-33-83-90-84-146 61-4 71 20 112 93zM789 393c-62 8-151 2-228 79-66 66-74 104-115 175l-20 57c-4 42-15 55-24 90-14 53 0 70-23 99-1-2-3-5-4-7 0-2-3-5-3-7l-1-16c0-1 5-22 5-27 2-18 1-34-1-52-38 44 1 362 9 396 15 62 29 145 46 169 27 38 44 108 59 155 34 17 33 28 33 68-20-2-30-12-80-15-15-29-29-63-45-89-36 27-18 20-33 53-8 19-4 8-13 18l1 1c-12 38-4 6-16 34-25 54 5 57-56 66 20-69 10 12 37-109-48 41-21-9-36 46s-137 280-158 416c-40 264-63 290-37 591 11 123 51 267 96 381 10 26 10 43 17 63l113 213c22 28 19 11 36 52 39 92 137 169 140 188 28 4 18-1 40 11 23 12 21 20 28 25l33 20c35 18 69 54 151 105 82 51 166 100 265 150 47 24 94 35 144 59l107 44c68 29 107 36 186 47l103 16c55 30-37-6 15 10 25 1 54-2 76-2 34-1 26 6 60 9 22 2 32-1 55 2l208 11c52 4 117-5 158-4 29 0 100-5 131-9 19-3 27-10 63-14l42-6c85-27 21-6 71-15 9-2 58-15 68-18 100-34 27-9 95-20 36-6 25-5 36-16h-21c5-15 3-24 7-40l13-42c11-40 19-55 58-65l-32 131c21-11 22-6 31-9 40-13 8-4 23-18l34-38c44 19 127-40 165-67 34-24 32-21 33-57 15 31-12 15 34 18 28-30 27-24 59-46l282-230c6-6 24-28 27-33l23-23c1-1 4-2 5-3 123-94 153-177 239-282 116-142 94-181 143-238 1-1 3-3 4-5 1-1 3-3 4-5 16-24 7-31 27-61 16-24 14-20 36-32-4-63 28-107 31-141 14-167 51-352 15-544-27-10-58-22-84-32-126-47-196-115-178-274 18-156 73-152 105-243l-86-153c-18-33-19-20-41-47-10-13-20-29-33-46-15-19-20-23-35-45-26-36-47-65-75-93-146-142-192-187-361-292l-179-104c-13-6-16-5-32-11-31-11-83-31-115-45-107-48-272-96-389-107-53-5-271-33-311-24l23 7 285 30c29 5 59 8 84 20-11 21 5 16-31 8l-356-21c-29-5-19-5-26-8-40-15-322 32-380 47l-267 60c-30 5-45 3-79 31h27c37 3 41 33-3 63 10 33 14 18 10 48l-7 16c-38-19-50-61-92-107l-13-25-68 5c20-41 19-12 30-49-39-29-28-37-60-70L990 466c-28-27-43-56-84-65-11 16 24 29-25 18-28-6-5-1-16-26l41 7c-24-24 22 0-20-16-10-4-15-3-25-4l6 30c-31-3-57-3-80-21" fill="#413c35"/>
  <path d="M2688 1760c-20 24-28 21-82 29 12 70 25 114 33 185 12 121-2 151 51 156 8-8 4-5 16-14 2-1 17-11 17-11 11-6 24-11 35-16l160-68c24-11 39-31 70-48 44-24 125-57 173-15 11 9 38 52 44 71 11 34 5 67-20 93 14 41-29 100-50 125-16 19-30 37-44 53-36 41-33 4-51 52l42-12c-3 36 5 10-18 29l-68 47c-2 1-4 3-5 4l-20 11c-2 1-5 3-8 4-8 0-108 41-118 47-7 6-4 6-17 14-2 1-17 8-18 8-24 9-20 3-48 16l-116 10-6-36c-24 11-27-22-7 39 4 13 13 17 17 45 10 67 10 212-38 282l-9 12c-1 1-3 4-5 6-39 51-153 46-200-1-47-47-51-164-53-238-7-68 4-80 15-124-25-14-113-18-157-35l-51-31c-20-31-92-60-87-164 4-66 59-123 105-147 66-35 139-5 201 4 96 14 143 1 229-2 11-11 6-3 12-22-12-13-3 2-11-20-7-17-24-227-41-298-26 3-19-1-34-1-43-1-52 10-118-3-191-38-106-192 86-261 42-15 128-35 175-26 210 39 163 196 17 251zm-734-135-72 117c-17 47-30 95-57 133-15-12-14 26-12-29l-14 52c-3 16-7 32-8 51-2 47-16 104-16 143 0 47 8 109 7 163 8 36 10 51 16 93 6 46 77 214 107 252 15 20 18 29 28 52l57 69c20 23 45 43 72 70 27 27 35 37 72 61 159 104 309 177 538 160 161-13 304-55 417-130 26-17 57-37 80-53 65-44 157-155 203-220 115-165 139-326 156-520 3-33-9-82-10-117-2-94-48-212-98-300-63-113-55-110-173-242-16-19-55-41-74-58-58-51-94-79-169-113-28-13-84-33-110-35-8 12 10 24-81 20-31-1-59-4-89-6-135-11-163 18-282 38-50 8-97 34-152 59l-181 118c-40 30-64 35-92 75-19 27-45 66-63 100" fill="#716256"/>
  <path d="M590 897c11 69-2 120 5 189 6 55 20 121 27 186l16 44c24 9 12-14 22 13-14-37 88-110 114-136l116-107c37-37 25-2 89-77 35-40 25-20 57-50 57-55 53-24 48-60L990 780c-35-16-41-59-100-83-52-21-97-38-149-14-45 20-82 47-101 83-57 108-35 105-49 132" fill="#cd836f"/>
  <path d="m2786 1208 109 14c26 2 82 22 110 35 75 34 111 62 169 113 19 17 58 40 74 58 118 132 109 129 173 242 49 88 96 206 98 300 1 35 13 84 10 117-17 194-41 355-156 520-46 66-138 177-203 220-24 16-55 36-80 53-113 75-257 118-417 130-229 18-379-56-538-160-37-24-45-34-72-61-27-27-51-47-72-70l-57-69c-40 33-29 33 17 91l86 76c55 30 0 25 117 91 99 55 14 36 216 102 42 14 180 40 219 36 45-4-35-7 20-7 17 0 64 12 92 13 59 2 283-59 332-87 38-21 94-51 134-71 66-32 186-164 235-234 1-2 3-4 4-5l24-29c35-47 5-59 37-94l14-12c59-58 53-121 60-138 4-10 9-11 15-31 28-95 58-293 30-388-9-32-20-48-19-88-27 6-18 3-35 18 16-28 3-26-5-44 18-20 13 12 35-7l-12-62c-22-35-57-128-116-225-25-40-42-62-74-101a866 866 0 00-45-44c-22-18 17 13-10-7l-114-89c-29-13-1 6-29-15l-52-36c-33-22-257-113-301-87l-24 29" fill="#0f0c0a"/>
  <path d="M4040 1909c6-25 3-40 33-43-4 12-2 8-9 19l-24 24zm-131-164c-1-35-7-16 17-34 13 8 3-8 16 20-28 6-4 0-33 15zm132 12-19-8c-1-1-4-2-5-4-11-11-7-3-11-24l15-8c25-5 26 0 38 11-1 1-2 2-2 4l-17 28zm44-151-36-53c61 24 39 44 39 44 0-2-2 6-3 9zm-177-25c-4 22 4 12-9 14-14-19-14 25-12-25 18-12 10-8 25-20 19-16-5-7 31-17-6 32-30 44-30 43-1-2-3 3-5 4zm-137-12 28 5c2 48 4 27-10 27-23 1 22-23-23-2 13 27 29 29 39 48l-70-24h-28l5-39c-32 21-12 13-28 52l24 6c-9 42-13 9-12 62l25-16c48 35 33 86-2 113 2 1 5 1 6 4 1 3 4 3 6 4l44 25 15-68c40-10-5-14 61-18l-4 45c-27 9-21-3-18 14l-50 124-4 44c33 7 33 20 70 17 30 6 9 1 18-5-16-34-16-20-1-53l27-42c20 70 1 48 33 86-6 39 3 4-18 18l-18-2c20 8 3-5 9 22 28 9 62-4 85-17 6-3 22-11 29-16 10-6 15-9 25-18 19-19 33-47 59-66 9-18-4-9 19-24-18-49-21-19 4-42 32-18 23-35 24-52 1-37 25-15-18-30 22-12 26-19 31-42l-3-79c-11-37-20-30-28-47-16-36 28-17-31-47-22 25-78-20-106-29-88-29-60 8-135-4-15 13-27 25-39 35l-40 34" fill="#c6826b"/>
  <path d="M2398 2481c-25 67-20 352 68 392 26 11 44 10 69 0 30-12 18-20 38-21 32-114 50-168 20-310l-44-75-18-12-29 8c6 43 9 97 11 141 1 28 0 50 1 78 1 22 2 23-15 32l-32-206c0-2 0-4-1-7 0-2-1-5-1-7-2-15-3-11-3-32-12-12 19-13-27-7-27 11-18 16-38 25" fill="#cf492a"/>
  <path d="M2592 1583c-31 12-84 27-108 39-23 12-58 45-70 63l-46 18-2-16c-9 9-22-1-7 35 33 78 295 71 381-57 52-78-17-95-24-111-14 8 4 12-41 11 19 15 14-1 14 24l-51 15c23 29 6 33-11 44-43-19-21-48-20-59 1-6 4-6 6-10l-21 4" fill="#ed6b30"/>
  <path d="M2367 1689c12-25 1-16 27-30 7-22-18 5 16-23 56-47 137-73 210-76 17-17 7-15 43-14 13 0 42 7 54 9 7 16 76 34 24 111-86 128-348 135-381 57-15-35-3-25 7-35zm194 112c52-26 63-27 126-41 146-55 193-211-17-251-47-9-133 11-175 26-191 69-277 224-86 261 65 13 75 2 118 3 15 0 8 5 34 1" fill="#15120e"/>
  <path d="m2081 1418-2-2c-11 18 0 3-17 21-37 37-101 82-131 164l-5 29 28-5c19-34 44-72 63-100 28-40 52-45 92-75l181-118c55-25 103-51 152-59 119-20 147-49 282-38 30 2 58 5 89 6 91 4 73-8 81-20l-109-14-214-3c-26 8-99 25-137 33-34 7-91 33-124 52-57 33-52-3-118 59l-112 70" fill="#ebe4d9"/>
  <path d="M1766 2446c20 13 7-4 30 22 1 1 8 10 8 10 6 11 3 9 6 20 9 33-9 1 10 32 18 29 30 13 32 45 0 2-1 7-1 9 0 25 27 39 59 61l-4-46c-30-38-101-206-107-252-6-42-8-57-16-93-2-2-3-9-3-7l-10-49c-8-28 21-13-25-27 37-11 29 13 27-53h-18c-2 0-14 5-16 6-31 16-23-4-28 36 0 0 6 52 7 56l8 39c1 3 4 11 5 13 22 61 9 73 28 113 32 68 1 15 9 63" fill="#171411"/>
  <path d="M1185 2442c-4 26-38 72-52 114-17 47-40 85-48 128 31 20 31 17 91 14-2 2-4 6-5 8l-12 20c28 2 61-3 87-11 43-13 43-12 58-40-30 24-29 13-62 31-9-15-4 4-7-26 0 0 2-16 2-18-17 35-44 17-40-21l95-197c1-30 4 14 0-16l-27 6c-51 79-36 81-82 164-11 20-3-1-12 31-8 26-1 46-35 58-31-26 14-106 36-147l35-71c18-39 2-36 36-66 7-16 9-24 11-49-46 11-41 50-69 87" fill="#705348"/>
  <path d="m1274 713 29 6c33-28 48-26 79-31l267-60c58-15 340-62 380-47l53 2c7-20-2-24-10-32l-23-7c-44 9-74 7-117 9l-494 87c-31 7-54 15-87 25-47 14-62 19-77 48" fill="#d4c9b1"/>
  <path d="M2346 2640c2 74 6 191 53 238 47 47 160 52 200 1l15-53-41 26c-20 1-8 9-38 21-24 10-43 11-69 0-88-39-93-325-68-392-44 17-12 18-33 84l-3 6-5 15c-4 19-3 34-3 54 27 12 10-12 9 27 0-54 3-4-17-26" fill="#281b15"/>
  <path d="m3650 1726 40-7c-4 12-7 26-14 34-18 19 17 15-32 14 4 19 6 42 10 58 3 14 0 8 6 22 12 29 4 11 15 24l3-37c36 8 4 18 22-4 10-13 2-7 14-15 59 18 55 44 51 72-31-9-33-16-63-7 2 19-5 12 8 30l31 21 1-31c14 6 4-1 20 10 17 11 12 2 18 20l50-124-45-1 6-41-15 68-44-25c-1-1-5-1-6-4-1-3-4-3-6-4 35-28 50-78 2-113l-25 16-33 4 7-34c-9 8-8 1-14 18-9 23-5 9-6 35" fill="#b0765d"/>
  <path d="m2572 2851 41-26-15 53c2-2 4-5 5-6l9-12c48-70 48-214 38-282-4-28-12-33-17-45-21-61-17-28 7-39l8-8c-30 1-15-3-46 11l-53-31 44 75c30 142 12 196-20 310" fill="#362919"/>
  <path d="M2561 1801c17 71 35 281 41 298 8 21 0 7 11 20 6-13-6-12 14-10 9 21-4 15 22 26 37 16 33-1 39-5-53-4-38-35-51-156-7-72-20-116-33-185 54-7 61-5 82-29-63 14-74 15-126 41" fill="#35312a"/>
  <path d="M677 1440c-4-45-31-77-39-125l-16-44-32-3c-7-31 5-88-1-146-8 24-9 15-36 8 11-41 12-11 25-40-32-4-12-7-38 7 18 60 31 154 46 220l30 77c5 11 5 14 10 25 17 35 39 68 71 75-3-55 3 1-19-54" fill="#211b15"/>
  <path d="m989 780 94 119c29 18 5 1 20 16 0 0 17 20 17 21 10 13 15 23 23 35l36 11c21-50-21-68-39-94-13-18-9-26-25-44-13-16-9-7-19-18-30-35-2-31-67-14 6-24 0-10 10-27 1-2 3-5 5-7l-6-22c-36-5-31-24-62-22l1 17c0 2 1 5 2 7l3 6c1 2 7 7 8 8l-2 8" fill="#2a2315"/>
  <path d="M1108 2257c-4 6 2 1-9 10-5 4-9 5-15 8-8 18-17 33-26 49-5 9-6 10-13 22-11 19 3 5-12 19-4 24-11 41-20 71-11 35-13 41-37 47l4 40c35-15 13-4 27-32l27-41c5-14 8-25 15-34l26-23c1-33 21-74 37-110l12 17c15 11-11 14 23 7l35-85-72 33" fill="#695849"/>
  <path d="M2028 580c7 3-3 2 26 8l356 21c35 8 20 13 31-8-25-13-55-15-84-20l-285-30c8 8 17 12 10 32l-53-2" fill="#796858"/>
  <path d="M2531 2455c-11-9-21-18-53-16l-42 17c46-6 15-4 27 7-1 21 1 17 3 32 0 2 1 5 1 7 0 2 1 5 1 7l32 206c17-9 16-10 15-32-2-29 0-50-1-78-2-44-5-98-11-141l29-8" fill="#513215"/>
  <path d="M3088 776c-21-39-267-164-330-177l3-32c-15 14-5-6-14 18-9 25-4 10-3 32 20 12 101 35 174 73 46 24 126 83 171 85" fill="#483c34"/>
  <path d="M192 1950c22-13 20-102 78-205 18-32 29-44 19-77-45 0-43 37-47 51-9 32-19 43-26 69-15 55-42 134-24 162" fill="#6c5e53"/>
  <path d="m2394 1659-13 27h34c12-18 47-51 70-63 23-12 77-27 108-39 39-7 40 10 52-21l-25-3c-73 3-154 29-210 76-34 29-8 2-16 23" fill="#ead6b1"/>
  <path d="m975 2412 33-1c-11-43-6-34 25-46 15-14 1 0 12-19 7-12 8-14 13-22 9-15 18-31 26-49-8 6-13 12-14 9-1-2-5 2-6 3l-12-14c-39 8-7 7-45 31l-56 7c22 54 25 22 23 100" fill="#a76c5a"/>
  <path d="M3352 650c16-42 20-96 15-138-10-85 15-87-68-96 19 71 22 72 52 97-13 47 8 19-24 25l10 8c50 47-74 92 15 105" fill="#211d17"/>
  <path d="M2479 2225c37 13 133-65 48 85-24 42-28 37-40 99 21-9 26-12 35-34 15-36 2-23 26-54 7-9 52-93 42-109-27-22-23-21-59-19-44 3-48 12-51 32" fill="#423a32"/>
  <path d="M863 2390c29 16 23-23 24 20-14 21-2 13-27 16l-4 30c2 62-3 16 16 31 33-17 52-25 50 24 0-1 20 7 7-36-1-3-5-8-6-20 51-7 22-8 32-18-36-4-12 4-27-8l17-67c4-12 4-5 4-23-20 26-24 75-62 90l11-65c-9-13-2 7-7-16 0-2 1-15 1-18-20 18-1-14-19 24-3 6-8 26-11 37" fill="#a9725a"/>
  <path d="M1239 739c41 46 53 87 92 107l7-16c4-31 0-15-10-48 44-30 40-60 3-63h-27l-29-6c1 3 3 3 4 7 1 4 3 5 4 7 13 24 23 31 14 52-25-13 1 6-13-14-1-2-6-9-7-11-1-2-2-5-3-6-1-1-2-4-3-6l-30-3" fill="#292622"/>
  <path d="M2955 2229c1-2 3-9 3-7 12 23-12-18 32-30 3 5 28-2 1 60-12 27-46 75-1 92 41-45-9 21 19-83 13-51-9-1 3-34 6-16 9-6 24-30-58-15-19-21-77-38-1 2-19 32-19 32-4 22 5 24 16 38" fill="#2f2c29"/>
  <path d="m2592 1583 21-4c-2 4-5 4-6 10-1 12-23 40 20 59 17-11 34-15 11-44l51-15c0-25 6-9-14-24 46 1 27-3 41-11-12-2-41-9-54-9-36-1-27-3-43 14l25 3c-13 31-14 13-52 21" fill="#d76837"/>
  <path d="m3674 1871 32 44 19 16 16 1-31-21c-13-18-5-12-8-30 30-10 32-3 63 7 4-28 8-53-51-72-12 8-4 2-14 15-18 22 14 11-22 4l-3 37" fill="#c9816e"/>
  <path d="m2579 2283 5 14c0 2 1 5 2 8l7 35c23-18 75-103 89-146-43 4-39 12-52 52-16 47-11 32-50 38" fill="#3a3531"/>
  <path d="m863 2556-2-32 36 24c14-35-10-25 24-37 2-50-17-42-50-24-19-15-14 31-16-31-4 15-10 34-11 52-1 35-3 35 18 47" fill="#786650"/>
  <path d="m840 1329-18-9-2-1s-1-1-2-1c11 40-8 116 58 107 12-28 12-30-4-56-9-14-18-13-32-39" fill="#1c1914"/>
  <path d="M949 2281c65 0-18 10 57 15 19-27 29-33 40-78-19 6-67 25-85 33l-12 29" fill="#aa7463"/>
  <path d="m3040 2351-97 60 25-2-5 26c3-1 6-3 8-4l20-11c2-1 4-3 5-4l68-47c23-19 15 7 18-29l-42 12" fill="#939388"/>
  <path d="M3846 1991c16 25 10 18 50 23-6-27 11-14-9-22-12-16-6 13-10-17-7-50-3-8 5-27 27 16 26 11 24 46 21-14 13 21 18-18-32-37-13-16-33-86l-27 42c-15 32-15 18 1 53-8 6 12 11-18 5" fill="#98684d"/>
  <path d="M3277 749c15-13 6-7 29-14 12-4 4 3 25-6l11-48c-20-7 34-29-42 0l5-32-27 101" fill="#6b4d31"/>
  <path d="M353 1542c-10 10-11 13-12 11-1-2-5 3-7 6-16-15-19 27-10-30l-6 3c-27 121-16 40-37 109 61-9 31-12 56-66 12-27 4 4 16-34" fill="#71716b"/>
  <path d="M1354 2575c5-5 20-18 21-26 5-44 12-14-17-25-10 24-20 26-30 51-9 21-13 41-19 60 29-9 34-31 46-60" fill="#5c5246"/>
  <path d="m2042 1387-8 25c25 10-8 3 21 5h24l2 2c21-52 29 1 19-41-4-18-15-15-32-17l-26 27" fill="#0d0a08"/>
  <path d="m2918 161 21-3-8 17c15-6 31-9 48-19 1 0 14-9 15-10 23-18 4 1 23-22v-17c-26 9-31 9-55 23l-39 25c-1-2-4 4-6 5" fill="#a89878"/>
  <path d="M2830 224c-8 56-6 14 10 31 29-17 46-39 64-62-27 2-12 4-18-10-24 15-32 27-57 41" fill="#918974"/>
  <path d="m571 1017 18-78c-5 1-10-2-12 3l-18 8-15 24c-8 36 4 36 27 43" fill="#0d0b09"/>
  <path d="M788 396c24 18 49 18 80 21l-6-30-53-5 3 14h-25" fill="#b1a992"/>
  <path d="M4057 1729c0-2 1-3 2-4-12-12-13-17-38-11l-15 8c4 22 0 13 11 24 1 1 4 3 5 4l19 8 17-28" fill="#886654"/>
  <path d="m4095 1898 40-16-14-42c-1-2-2-6-3-8-25 23-22-7-4 42-23 15-9 6-19 24" fill="#523829"/>
  <path d="M323 1530c-10 56-6 15 10 30 2-2 6-8 7-6 1 2 3-2 12-11l-1-1c7-47 9-17-18-27l-10 15" fill="#c8bca9"/>
  <path d="m3887 1993 18 2c2-35 4-30-24-46-8 19-12-23-5 27 4 30-2 1 10 17" fill="#322c25"/>
  <path d="m907 406-41-7c11 24-12 19 16 26 49 11 14-2 25-18" fill="#cbb590"/>
  <path d="M975 2220c34-10 26-3 42-27l10-14c-27 10-36 14-52 41" fill="#cb9678"/>
</svg>
