<svg width="34" height="34" xmlns="http://www.w3.org/2000/svg" xml:space="preserve" fill-rule="evenodd" clip-rule="evenodd" image-rendering="optimizeQuality" shape-rendering="geometricPrecision" text-rendering="geometricPrecision" version="1.1" viewBox="0 0 119528 119528"><circle fill="#f7f7f7" cx="59764" cy="59764" r="59637" stroke="#a6a6a6" stroke-miterlimit="22.926" stroke-width="254"/><path d="m61657 8850 4550 15c7181 0 13002 5821 13002 13002v48526c0 3949 3201 7150 7150 7150s7151-3201 7151-7150-3202-7151-7151-7151c-658 0-1313 95-1919 261l-1517-5653c1098-302 2242-459 3436-459 7181 0 13001 5821 13001 13001 0 7180-5821 13002-13001 13002-6240 0-11459-4410-12717-10274C69157 79055 62300 83134 54507 83964l-1-5892C65150 76644 73358 67525 73358 56490c0-11032-8213-20148-18852-21583v8912c5769 1330 10076 6499 10076 12671h-5850c0-3949-3202-7150-7151-7150s-7150 3201-7150 7150H38580c0-6170 4310-11340 10076-12671V21853c0-7180 5821-13002 13002-13002zm4550 5865c3949 0 7150 3202 7150 7151v17619c-4488-5734-11219-9664-18852-10471v-7163c0-3949 3202-7150 7151-7150l4550 14" fill="#000"/><path d="M65241 80561c-4011 2267-8653 3566-13589 3566-15264 0-27699-12374-27699-27638 0-15263 12435-27638 27699-27638 5045 0 9790 1362 13861 3722l-2955 5118c-3204-1861-6935-2984-10906-2984-12000 0-21848 9781-21848 21782 0 12001 9848 21729 21848 21729 3866 0 7490-1004 10635-2774l2954 5117zm0 0" fill="#fc0303"/><path d="M44430 56489c0-3949 3201-7150 7150-7150s7151 3201 7151 7150-3202 7151-7151 7151-7150-3202-7150-7151zm4225-21583C38010 36334 29803 45453 29803 56489c0 11035 8208 20153 18852 21582V69160c-5773-1326-10076-6495-10076-12671 0-6170 4310-11340 10076-12671v-8912zm5850 43165c10644-1428 18852-10547 18852-21582 0-11032-8213-20148-18852-21583v8912c5769 1330 10076 6499 10076 12671 0 6176-4302 11346-10076 12672l-1 8911zm11702-63355c3949 0 7150 3202 7150 7151v17619c-4488-5734-11219-9664-18852-10471v-7163c0-3949 3202-7150 7151-7150l4550 14zM29805 91268l-1-17769c4492 5746 11205 9660 18851 10465v7304c0 3949-3201 7150-7151 7150h-4548c-3949 0-7151-3201-7151-7150" fill="#e6e6e6"/><path d="M48655 78071c-10644-1429-18852-10547-18852-21582 0-11036 8207-20155 18852-21583v-5893c-13886 1459-24703 13203-24703 27475l2 34779c0 7180 5821 13001 13002 13001h4548c7181 0 13002-5821 13002-13001V69160c5774-1326 10076-6496 10076-12672h-5850c0 3949-3202 7151-7151 7151s-7150-3202-7150-7151H38580c0 6176 4303 11345 10076 12671v8911zm-18850 13197-1-17769c4492 5746 11205 9660 18851 10465v7304c0 3949-3201 7150-7151 7150h-4548c-3949 0-7151-3201-7151-7150" fill="#fc0303"/><path d="M44430 56489c0-3949 3201-7150 7150-7150s7151 3201 7151 7150-3202 7151-7151 7151-7150-3202-7150-7151zm-14627 0c0 11035 8208 20153 18852 21582l-1-8911c-5773-1326-10076-6495-10076-12671 0-50776-8776-20862-8776 0zm24702 21582c-2836 2328 77475-23826 1-8911l-1 8911zm-24700 13197-1-17769c4492 5746 11205 9660 18851 10465v7304c0 3949-3201 7150-7151 7150h-4548c-3949 0-7151-3201-7151-7150" fill="#f1c50e"/></svg>
